<svg xmlns="http://www.w3.org/2000/svg" viewBox="0 0 999 676">
<polygon points="670,627 671,627 672,626 674,626 675,625 676,625 677,624 679,624 680,623 683,623 684,622 686,622 687,621 690,621 691,620 693,620 694,619 696,619 697,618 699,618 700,617 703,617 704,616 706,616 707,615 708,615 677,615 677,616 675,618 675,619 673,621 673,622 672,623 672,624 670,626" fill="#ff1a1a"/><polygon points="311,615 312,615 313,616 315,616 316,617 319,617 320,618 322,618 323,619 326,619 327,620 328,620 329,621 332,621 333,622 335,622 336,623 338,623 339,624 342,624 343,625 344,625 345,626 347,626 348,627 349,627 349,626 347,624 347,623 345,621 345,620 344,619 344,618 342,616 342,615" fill="#ff1a1a"/><polygon points="617,614 618,615 618,620 619,621 630,621 631,622 631,623 629,625 617,625 617,627 633,627 633,619 631,619 630,618 628,618 627,619 622,619 620,617 620,615 621,614 631,614 632,615 633,614 633,612 619,612" fill="#ff1a1a"/><polygon points="579,612 579,614 584,614 586,616 586,617 585,618 585,621 586,622 586,627 588,627 588,615 589,614 595,614 595,612" fill="#ff1a1a"/><polygon points="540,612 540,627 542,627 542,615 543,614 552,614 554,616 554,617 552,619 545,619 545,620 552,627 556,627 551,622 552,621 555,621 556,620 556,613 555,612" fill="#ff1a1a"/><polygon points="502,612 502,613 501,614 501,626 502,627 517,627 517,612" fill="#ff1a1a"/><polygon points="463,613 463,627 466,627 466,617 465,616 467,614 475,614 477,616 477,617 475,619 468,619 468,620 469,620 470,621 478,621 479,620 479,613 478,612 464,612" fill="#ff1a1a"/><polygon points="426,612 425,613 425,620 426,621 437,621 438,622 438,624 437,625 425,625 425,627 440,627 441,626 441,625 440,624 440,619 429,619 427,617 427,616 429,614 440,614 440,612" fill="#ff1a1a"/><polygon points="386,612 386,627 402,627 402,625 390,625 388,623 388,622 389,621 399,621 399,619 390,619 388,617 388,616 390,614 402,614 402,612" fill="#ff1a1a"/><polygon points="511,267 466,313 481,332 494,333 494,482 510,503 526,483 526,333 539,332 555,314" fill="#ff1a1a"/><polygon points="657,104 514,252 556,293 606,243 606,340 556,395 667,499 619,416 603,415 657,358" fill="#ff1a1a"/><polygon points="363,104 363,358 417,415 400,418 353,500 465,394 415,341 415,243 464,292 507,251" fill="#ff1a1a"/><polygon points="554,0 557,3 557,5 554,8 555,8 558,5 561,8 562,8 559,5 559,3 561,1 561,0 558,3 555,0" fill="#ff1a1a"/>
</svg>